<?xml version="1.0" standalone="no"?><!DOCTYPE svg PUBLIC "-//W3C//DTD SVG 1.1//EN" "http://www.w3.org/Graphics/SVG/1.1/DTD/svg11.dtd"><svg t="1705732316635" class="icon" viewBox="0 0 1024 1024" version="1.1" xmlns="http://www.w3.org/2000/svg" p-id="8623" xmlns:xlink="http://www.w3.org/1999/xlink" width="200" height="200"><path d="M680.009705 552.78609a135.194501 135.194501 0 1 0 135.401536 135.1945 135.401537 135.401537 0 0 0-135.401536-135.1945z m36.852406 156.933279l22.980995 70.1852-59.833401-43.477557-60.040437 43.477557 22.773959-70.1852-59.626365-43.477557h74.118884l22.773959-70.185201 22.773959 70.185201h73.911848z" fill="#707070" p-id="8624"></path><path d="M843.775172 0H180.224828A119.252729 119.252729 0 0 0 60.972099 119.252729V904.747271a119.252729 119.252729 0 0 0 119.252729 119.252729h663.550344a119.252729 119.252729 0 0 0 119.252729-119.252729V119.252729A119.252729 119.252729 0 0 0 843.775172 0zM194.510311 162.109179h536.430247a24.430247 24.430247 0 0 1 0 48.653457H194.510311a24.430247 24.430247 0 1 1 0-48.653457z m0 272.666397h347.406389a24.430247 24.430247 0 1 1 0 48.653458H194.510311a24.430247 24.430247 0 1 1 0-48.653458z m195.027902 322.976143H194.510311a24.430247 24.430247 0 1 1 0-48.653458h195.027902a24.430247 24.430247 0 1 1 0 48.653458z m289.850384 103.517994a173.91023 173.91023 0 1 1 173.91023-173.910231 174.117266 174.117266 0 0 1-173.289122 174.531339z" fill="#707070" p-id="8625"></path></svg>