<?xml version="1.0" standalone="no"?><!DOCTYPE svg PUBLIC "-//W3C//DTD SVG 1.1//EN" "http://www.w3.org/Graphics/SVG/1.1/DTD/svg11.dtd"><svg t="1705731717809" class="icon" viewBox="0 0 1024 1024" version="1.1" xmlns="http://www.w3.org/2000/svg" p-id="1681" xmlns:xlink="http://www.w3.org/1999/xlink" width="200" height="200"><path d="M788.407767 0.026864c146.081619-2.197179 271.733872 130.7292 206.534793 282.703653-30.375262 70.801885-87.4814 112.228956-175.774292 125.971575-138.879268 21.615844-259.048827-140.43487-206.534792-275.379723a210.514616 210.514616 0 0 1 121.577218-121.577219z m5.859143 64.450574c-49.235844 20.033875-75.821705 19.975283-102.535003 62.985788-17.107233 27.537972-36.692883 60.968778 11.718286 64.450573l1.464786-1.464786c2.951543-86.542472 100.068304-108.193471 166.985577-70.309716l-1.464786 2.929571-38.08443 14.647858v1.464786h2.929572l90.816717 43.943573-1.464786-106.929361-24.901358 24.901358c-28.75228-20.75162-54.599889-36.638686-105.464575-36.619644z m-660.618379 139.154647l442.3653 1.464786c-1.464786 130.428919 113.002363 246.198262 254.872723 227.041793v357.407727c0 61.739255 5.632101 131.550945-17.577429 169.915148-16.188812 26.758706-45.408359 49.626942-79.098431 58.591431-42.42459 11.293498-105.782433 2.929572-153.802505 2.929571h-316.393725c-72.178783 0-153.322055 6.869845-196.281292-21.971786-56.173069-37.709445-54.197073-106.76091-54.197074-202.140435V459.969594c0-56.716505-8.733053-134.583051 8.788715-177.239077 12.743636-31.025627 40.318228-57.992333 71.774502-70.309717z m773.406883 13.183072c-14.794336 54.727326-54.645298 109.539609-127.436361 89.351932-16.578445-4.597963-30.93774-8.240885-41.014002-19.042215v-1.464786l27.83093-16.112643-1.464786-2.929572-80.563217-41.014001 1.464786 106.92936 24.901358-24.901357c104.912351 74.009765 196.281292 26.483327 228.506579-84.957575l-1.464786-1.464786z m-777.80124 165.520791v127.436362h127.436361l-1.464786-127.436362h-125.971575z m24.901358 26.366144h76.168859v76.16886h-76.168859v-76.16886z m153.802505 13.183072v49.802716h369.126012v-49.802716h-369.126012z m-178.703863 152.337719v127.436362h127.436361v-127.436362h-127.436361z m24.901358 24.901358h76.168859v77.633646h-76.168859v-77.633646z m153.802505 13.183072v51.267502h369.126012v-51.267502h-369.126012z m-178.703863 153.802505v127.436362h127.436361v-127.436362h-127.436361z m24.901358 24.901358h76.168859v77.633646h-76.168859v-77.633646z m153.802505 13.183072v51.267502h369.126012v-51.267502h-369.126012z" fill="#1296db" p-id="1682"></path></svg>